HIERARCHY
ROOT Hips
{
	OFFSET 0.00000 0.00000 0.00000
	CHANNELS 6 Xposition Yposition Zposition Zrotation Yrotation Xrotation 
	JOINT LHipJoint
	{
		OFFSET 0 0 0
		CHANNELS 3 Zrotation Yrotation Xrotation
		JOINT LeftHip
		{
			OFFSET 1.37590 -1.78394 0.89329
			CHANNELS 3 Zrotation Yrotation Xrotation
			JOINT LeftKnee
			{
				OFFSET 2.47928 -6.81178 0.00000
				CHANNELS 3 Zrotation Yrotation Xrotation
				JOINT LeftAnkle
				{
					OFFSET 2.63345 -7.23535 0.00000
					CHANNELS 3 Zrotation Yrotation Xrotation
					JOINT LeftToe
					{
						OFFSET 0.23938 -0.65768 2.27012
						CHANNELS 3 Zrotation Yrotation Xrotation
						End Site
						{
							OFFSET 0.00000 -0.00000 1.18363
						}
					}
				}
			}
		}
	}
	JOINT RHipJoint
	{
		OFFSET 0 0 0
		CHANNELS 3 Zrotation Yrotation Xrotation
		JOINT RightHip
		{
			OFFSET -1.33617 -1.78394 0.89329
			CHANNELS 3 Zrotation Yrotation Xrotation
			JOINT RightKnee
			{
				OFFSET -2.56922 -7.05888 0.00000
				CHANNELS 3 Zrotation Yrotation Xrotation
				JOINT RightAnkle
				{
					OFFSET -2.56568 -7.04915 0.00000
					CHANNELS 3 Zrotation Yrotation Xrotation
					JOINT RightToe
					{
						OFFSET -0.27533 -0.75646 2.18105
						CHANNELS 3 Zrotation Yrotation Xrotation
						End Site
						{
							OFFSET -0.00000 -0.00000 1.15233
						}
					}
				}
			}
		}
	}
	JOINT lowerback
	{
		OFFSET 0 0 0
		CHANNELS 3 Zrotation Yrotation Xrotation
		JOINT Chest
		{
			OFFSET 0.06190 2.15152 -0.00935
			CHANNELS 3 Zrotation Yrotation Xrotation
			JOINT Chest2
			{
				OFFSET 0.06334 2.15332 0.00872
				CHANNELS 3 Zrotation Yrotation Xrotation
				JOINT lowerneck
				{
					OFFSET 0 0 0
					CHANNELS 3 Zrotation Yrotation Xrotation
					JOINT Neck
					{
						OFFSET -0.04202 1.66908 0.23524
						CHANNELS 3 Zrotation Yrotation Xrotation
						JOINT Head
						{
							OFFSET 0.07510 1.69357 -0.24440
							CHANNELS 3 Zrotation Yrotation Xrotation
							End Site
							{
								OFFSET 0.02556 1.71719 -0.11000
							}
						}
					}
				}
				JOINT LeftCollar
				{
					OFFSET 0 0 0
					CHANNELS 3 Zrotation Yrotation Xrotation
					JOINT LeftShoulder
					{
						OFFSET 3.67168 1.26306 -0.41342
CHANNELS 3 Zrotation Xrotation Yrotation
						JOINT LeftElbow
						{
OFFSET 0 -4.685100 -0.000000
CHANNELS 3 Zrotation Xrotation Yrotation
							JOINT LeftWrist
							{
OFFSET 0 -3.396260 -0.000000
CHANNELS 3 Zrotation Xrotation Yrotation
								JOINT lhand
								{
									OFFSET 0 0 0
CHANNELS 3 Zrotation Xrotation Yrotation
									JOINT LFingers
									{
OFFSET 0 -0.486080 -0.000000
CHANNELS 3 Zrotation Xrotation Yrotation
										End Site
										{
OFFSET 0 -0.391890 -0.000000
										}
									}
								}
								JOINT LThumb
								{
OFFSET 0 0.000000 0.000000
CHANNELS 3 Zrotation Xrotation Yrotation
									End Site
									{
OFFSET 0 -0.397870 0.397870
									}
								}
							}
						}
					}
				}
				JOINT RightCollar
				{
					OFFSET 0 0 0
					CHANNELS 3 Zrotation Yrotation Xrotation
					JOINT RightShoulder
					{
						OFFSET -3.04136 1.42992 -0.76390
CHANNELS 3 Zrotation Xrotation Yrotation
						JOINT RightElbow
						{
OFFSET 0 -5.555760 -0.000000
CHANNELS 3 Zrotation Xrotation Yrotation
							JOINT RightWrist
							{
OFFSET 0 -3.327740 -0.000000
CHANNELS 3 Zrotation Xrotation Yrotation
								JOINT rhand
								{
									OFFSET 0 0 0
CHANNELS 3 Zrotation Xrotation Yrotation
									JOINT RFingers
									{
OFFSET 0 -0.507630 -0.000000
CHANNELS 3 Zrotation Xrotation Yrotation
										End Site
										{
OFFSET 0 -0.409260 -0.000000
										}
									}
								}
								JOINT RThumb
								{
OFFSET 0 0.000000 0.000000
CHANNELS 3 Zrotation Xrotation Yrotation
									End Site
									{
OFFSET 0 -0.415510 0.415510
									}
								}
							}
						}
					}
				}
			}
		}
	}
}
MOTION
Frames: 5
Frame Time: 0.008333333333333333
0.537892 18.308020 3.790313 -402.583559 -75.831116 408.611367 0.000000 0.000000 0.000000 -1.678744 -13.307107 -22.822578 3.113208 10.872327 31.854567 0.366373 -3.652779 -10.766011 0.738608 -5.490154 -15.312023 0.000000 0.000000 0.000000 37.683765 -3.900089 -4.962953 -0.503711 -4.549697 12.628488 -0.307926 -8.101378 -16.413280 -0.930542 -6.144904 17.205370 11.606575 4.216973 2.102043 -3.426916 6.066216 -5.549178 -10.548910 2.348783 -5.533700 -17.687129 -11.484295 -12.924937 2.941387 -12.541409 8.733303 2.395362 -6.517090 6.015715 0.000000 0.000000 0.000000 11.843651 19.485684 -0.293418 21.261230 -32.129899 6.189272 8.368656 21.943116 -17.829191 0.000000 0.000000 0.000000 -7.125000 0.000000 0.000000 -18.660496 47.089730 0.995900 0.000000 0.000000 0.000000 -126.204970 -29.621710 -65.715297 -68.200335 -58.008353 -41.260323 -41.025428 31.485578 20.364687 0.000000 0.000000 0.000000 7.125000 0.000000 0.000000 -13.857723 55.640016 3.672626
0.458045 18.306260 3.789346 -403.265299 -75.997117 409.373494 0.000000 0.000000 0.000000 -1.774681 -13.277917 -23.095800 2.859974 10.461516 30.487857 0.358301 -3.285644 -10.656606 0.749731 -5.530518 -15.428143 0.000000 0.000000 0.000000 37.735942 -3.852088 -4.707048 -0.502149 -4.542720 12.608737 -0.323848 -8.007279 -16.523038 -0.919152 -6.108197 17.098612 11.720895 4.246310 2.081313 -3.461535 6.108683 -5.590252 -10.653945 2.360425 -5.542859 -17.736812 -11.579340 -12.836222 3.134946 -12.700688 8.509167 2.452634 -6.575568 5.959686 0.000000 0.000000 0.000000 11.920026 19.501592 -1.132842 21.841778 -32.795979 6.500713 8.438071 21.653299 -17.688667 0.000000 0.000000 0.000000 -7.125000 0.000000 0.000000 -18.542900 46.965112 0.930286 0.000000 0.000000 0.000000 -127.248529 -30.050519 -66.474914 -60.164853 -56.263579 -34.498612 -39.251543 30.634835 20.644523 0.000000 0.000000 0.000000 7.125000 0.000000 0.000000 -11.784181 55.536395 3.080157
0.377541 18.304519 3.788919 -404.055960 -76.157614 410.246190 0.000000 0.000000 0.000000 -1.848834 -13.219561 -23.345851 2.609442 10.032624 29.083823 0.346102 -2.913758 -10.491197 0.758866 -5.563569 -15.523232 0.000000 0.000000 0.000000 37.795313 -3.820097 -4.466383 -0.502219 -4.543161 12.610112 -0.341422 -7.865480 -16.605762 -0.900683 -6.048265 16.924486 11.855662 4.277402 2.058607 -3.494388 6.154605 -5.634753 -10.768927 2.372518 -5.552185 -17.782077 -11.672225 -12.745846 3.327835 -12.857653 8.292105 2.509238 -6.633490 5.905724 0.000000 0.000000 0.000000 12.016061 19.533606 -1.946932 22.436590 -33.466070 6.825425 8.499585 21.373971 -17.561871 0.000000 0.000000 0.000000 -7.125000 0.000000 0.000000 -18.438242 46.852289 0.871580 0.000000 0.000000 0.000000 -128.345210 -30.462668 -67.299459 -52.917629 -54.068425 -28.531370 -37.315000 29.701703 20.993619 0.000000 0.000000 0.000000 7.125000 0.000000 0.000000 -9.540492 55.483150 2.471713
0.295997 18.302927 3.789087 -404.980344 -76.310980 411.251866 0.000000 0.000000 0.000000 -1.896687 -13.127626 -23.565591 2.363219 9.583673 27.639672 0.330262 -2.548782 -10.273636 0.764733 -5.584437 -15.583405 0.000000 0.000000 0.000000 37.864118 -3.803336 -4.239017 -0.504146 -4.551626 12.633997 -0.360111 -7.673312 -16.653867 -0.874117 -5.960772 16.670720 12.009446 4.311762 2.031370 -3.520703 6.205727 -5.679254 -10.887178 2.386765 -5.556459 -17.824148 -11.761395 -12.666984 3.508689 -13.006074 8.093986 2.561533 -6.688886 5.858373 0.000000 0.000000 0.000000 12.123166 19.568889 -2.715185 23.038907 -34.130738 7.160316 8.561098 21.127999 -17.466499 0.000000 0.000000 0.000000 -7.125000 0.000000 0.000000 -18.346139 46.769404 0.828252 0.000000 0.000000 0.000000 -129.492854 -30.847256 -68.185962 -46.583881 -51.491716 -23.480277 -35.204840 28.621104 21.395387 0.000000 0.000000 0.000000 7.125000 0.000000 0.000000 -7.111449 55.457170 1.832438
0.213143 18.301412 3.789794 -406.048958 -76.458715 412.402544 0.000000 0.000000 0.000000 -1.919474 -13.004530 -23.749621 2.123398 9.114592 26.157265 0.312726 -2.206404 -10.027922 0.763657 -5.580547 -15.572080 0.000000 0.000000 0.000000 37.940944 -3.796755 -4.019286 -0.507694 -4.567263 12.678244 -0.378954 -7.435793 -16.664102 -0.838141 -5.839495 16.319619 12.182205 4.350905 2.002282 -3.543470 6.264253 -5.726532 -11.012370 2.403788 -5.559191 -17.867375 -11.845706 -12.576707 3.693785 -13.150021 7.887461 2.616682 -6.742122 5.806935 0.000000 0.000000 0.000000 12.246930 19.614044 -3.439243 23.647393 -34.787462 7.505078 8.618447 20.899382 -17.372670 0.000000 0.000000 0.000000 -7.125000 0.000000 0.000000 -18.258586 46.687214 0.785850 0.000000 0.000000 0.000000 -130.667570 -31.207702 -69.124065 -41.113973 -48.640659 -19.294876 -32.933405 27.346063 21.821913 0.000000 0.000000 0.000000 7.125000 0.000000 0.000000 -4.512801 55.428722 1.157839
